<svg aria-roledescription="er" role="graphics-document document" viewBox="0 0 218.265625 709.28515625" style="max-width: 218.266px; background-color: white;" xmlns:xlink="http://www.w3.org/1999/xlink" xmlns="http://www.w3.org/2000/svg" width="100%" id="my-svg"><style>#my-svg{font-family:"trebuchet ms",verdana,arial,sans-serif;font-size:16px;fill:#333;}#my-svg .error-icon{fill:#552222;}#my-svg .error-text{fill:#552222;stroke:#552222;}#my-svg .edge-thickness-normal{stroke-width:1px;}#my-svg .edge-thickness-thick{stroke-width:3.5px;}#my-svg .edge-pattern-solid{stroke-dasharray:0;}#my-svg .edge-thickness-invisible{stroke-width:0;fill:none;}#my-svg .edge-pattern-dashed{stroke-dasharray:3;}#my-svg .edge-pattern-dotted{stroke-dasharray:2;}#my-svg .marker{fill:#333333;stroke:#333333;}#my-svg .marker.cross{stroke:#333333;}#my-svg svg{font-family:"trebuchet ms",verdana,arial,sans-serif;font-size:16px;}#my-svg p{margin:0;}#my-svg .entityBox{fill:#ECECFF;stroke:#9370DB;}#my-svg .attributeBoxOdd{fill:#ffffff;stroke:#9370DB;}#my-svg .attributeBoxEven{fill:#f2f2f2;stroke:#9370DB;}#my-svg .relationshipLabelBox{fill:hsl(80, 100%, 96.2745098039%);opacity:0.7;background-color:hsl(80, 100%, 96.2745098039%);}#my-svg .relationshipLabelBox rect{opacity:0.5;}#my-svg .relationshipLine{stroke:#333333;}#my-svg .entityTitleText{text-anchor:middle;font-size:18px;fill:#333;}#my-svg #MD_PARENT_START{fill:#f5f5f5!important;stroke:#333333!important;stroke-width:1;}#my-svg #MD_PARENT_END{fill:#f5f5f5!important;stroke:#333333!important;stroke-width:1;}#my-svg :root{--mermaid-font-family:"trebuchet ms",verdana,arial,sans-serif;}</style><g/><defs><marker orient="auto" markerHeight="240" markerWidth="190" refY="7" refX="0" id="MD_PARENT_START"><path d="M 18,7 L9,13 L1,7 L9,1 Z"/></marker></defs><defs><marker orient="auto" markerHeight="28" markerWidth="20" refY="7" refX="19" id="MD_PARENT_END"><path d="M 18,7 L9,13 L1,7 L9,1 Z"/></marker></defs><defs><marker orient="auto" markerHeight="18" markerWidth="18" refY="9" refX="0" id="ONLY_ONE_START"><path d="M9,0 L9,18 M15,0 L15,18" fill="none" stroke="gray"/></marker></defs><defs><marker orient="auto" markerHeight="18" markerWidth="18" refY="9" refX="18" id="ONLY_ONE_END"><path d="M3,0 L3,18 M9,0 L9,18" fill="none" stroke="gray"/></marker></defs><defs><marker orient="auto" markerHeight="18" markerWidth="30" refY="9" refX="0" id="ZERO_OR_ONE_START"><circle r="6" cy="9" cx="21" fill="white" stroke="gray"/><path d="M9,0 L9,18" fill="none" stroke="gray"/></marker></defs><defs><marker orient="auto" markerHeight="18" markerWidth="30" refY="9" refX="30" id="ZERO_OR_ONE_END"><circle r="6" cy="9" cx="9" fill="white" stroke="gray"/><path d="M21,0 L21,18" fill="none" stroke="gray"/></marker></defs><defs><marker orient="auto" markerHeight="36" markerWidth="45" refY="18" refX="18" id="ONE_OR_MORE_START"><path d="M0,18 Q 18,0 36,18 Q 18,36 0,18 M42,9 L42,27" fill="none" stroke="gray"/></marker></defs><defs><marker orient="auto" markerHeight="36" markerWidth="45" refY="18" refX="27" id="ONE_OR_MORE_END"><path d="M3,9 L3,27 M9,18 Q27,0 45,18 Q27,36 9,18" fill="none" stroke="gray"/></marker></defs><defs><marker orient="auto" markerHeight="36" markerWidth="57" refY="18" refX="18" id="ZERO_OR_MORE_START"><circle r="6" cy="18" cx="48" fill="white" stroke="gray"/><path d="M0,18 Q18,0 36,18 Q18,36 0,18" fill="none" stroke="gray"/></marker></defs><defs><marker orient="auto" markerHeight="36" markerWidth="57" refY="18" refX="39" id="ZERO_OR_MORE_END"><circle r="6" cy="18" cx="9" fill="white" stroke="gray"/><path d="M21,18 Q39,0 57,18 Q39,36 21,18" fill="none" stroke="gray"/></marker></defs><path style="stroke: gray; fill: none;" marker-start="url(#ZERO_OR_MORE_START)" marker-end="url(#ZERO_OR_MORE_END)" d="M80.467,154.367L76.911,162.701C73.356,171.034,66.244,187.701,65.461,204.367C64.678,221.034,70.224,237.701,72.996,246.034L75.769,254.367" class="er relationshipLine"/><path style="stroke: gray; fill: none;" marker-start="url(#ZERO_OR_MORE_START)" marker-end="url(#ZERO_OR_MORE_END)" d="M137.799,554.918L141.354,546.585C144.91,538.251,152.021,521.585,152.804,504.918C153.587,488.251,148.042,471.585,145.269,463.251L142.497,454.918" class="er relationshipLine"/><path style="stroke: gray; fill: none;" marker-start="url(#ZERO_OR_ONE_START)" marker-end="url(#ZERO_OR_ONE_END)" d="M142.497,254.367L145.269,246.034C148.042,237.701,153.587,221.034,152.804,204.367C152.021,187.701,144.91,171.034,141.354,162.701L137.799,154.367" class="er relationshipLine"/><path style="stroke: gray; fill: none;" marker-start="url(#ZERO_OR_ONE_START)" marker-end="url(#ONLY_ONE_END)" d="M75.769,454.918L72.996,463.251C70.224,471.585,64.678,488.251,65.461,504.918C66.244,521.585,73.356,538.251,76.911,546.585L80.467,554.918" class="er relationshipLine"/><g transform="translate(42.6875,20 )" id="entity-Customer-7db3a251-ee0f-5d85-b53f-42db636cc6f9"><rect height="134.3671875" width="132.890625" y="0" x="0" class="er entityBox"/><text style="dominant-baseline: middle; text-anchor: middle; font-size: 12px;" transform="translate(66.4453125,12)" y="0" x="0" id="text-entity-Customer-7db3a251-ee0f-5d85-b53f-42db636cc6f9" class="er entityLabel">Customer</text><rect height="22.091796875" width="53.671875" y="24" x="0" class="er attributeBoxOdd"/><text style="dominant-baseline: middle; font-size: 10.2px;" transform="translate(5,35.0458984375)" y="0" x="0" id="text-entity-Customer-7db3a251-ee0f-5d85-b53f-42db636cc6f9-attr-1-type" class="er entityLabel">String</text><rect height="22.091796875" width="57.65625" y="24" x="53.671875" class="er attributeBoxOdd"/><text style="dominant-baseline: middle; font-size: 10.2px;" transform="translate(58.671875,35.0458984375)" y="0" x="0" id="text-entity-Customer-7db3a251-ee0f-5d85-b53f-42db636cc6f9-attr-1-name" class="er entityLabel">id</text><rect height="22.091796875" width="21.5625" y="24" x="111.328125" class="er attributeBoxOdd"/><text style="dominant-baseline: middle; font-size: 10.2px;" transform="translate(116.328125,35.0458984375)" y="0" x="0" id="text-entity-Customer-7db3a251-ee0f-5d85-b53f-42db636cc6f9-attr-1-comment" class="er entityLabel">PK</text><rect height="22.091796875" width="53.671875" y="46.091796875" x="0" class="er attributeBoxEven"/><text style="dominant-baseline: middle; font-size: 10.2px;" transform="translate(5,57.1376953125)" y="0" x="0" id="text-entity-Customer-7db3a251-ee0f-5d85-b53f-42db636cc6f9-attr-2-type" class="er entityLabel">String</text><rect height="22.091796875" width="57.65625" y="46.091796875" x="53.671875" class="er attributeBoxEven"/><text style="dominant-baseline: middle; font-size: 10.2px;" transform="translate(58.671875,57.1376953125)" y="0" x="0" id="text-entity-Customer-7db3a251-ee0f-5d85-b53f-42db636cc6f9-attr-2-name" class="er entityLabel">name</text><rect height="22.091796875" width="21.5625" y="46.091796875" x="111.328125" class="er attributeBoxEven"/><text style="dominant-baseline: middle; font-size: 10.2px;" transform="translate(116.328125,57.1376953125)" y="0" x="0" id="text-entity-Customer-7db3a251-ee0f-5d85-b53f-42db636cc6f9-attr-2-comment" class="er entityLabel"/><rect height="22.091796875" width="53.671875" y="68.18359375" x="0" class="er attributeBoxOdd"/><text style="dominant-baseline: middle; font-size: 10.2px;" transform="translate(5,79.2294921875)" y="0" x="0" id="text-entity-Customer-7db3a251-ee0f-5d85-b53f-42db636cc6f9-attr-3-type" class="er entityLabel">String</text><rect height="22.091796875" width="57.65625" y="68.18359375" x="53.671875" class="er attributeBoxOdd"/><text style="dominant-baseline: middle; font-size: 10.2px;" transform="translate(58.671875,79.2294921875)" y="0" x="0" id="text-entity-Customer-7db3a251-ee0f-5d85-b53f-42db636cc6f9-attr-3-name" class="er entityLabel">email</text><rect height="22.091796875" width="21.5625" y="68.18359375" x="111.328125" class="er attributeBoxOdd"/><text style="dominant-baseline: middle; font-size: 10.2px;" transform="translate(116.328125,79.2294921875)" y="0" x="0" id="text-entity-Customer-7db3a251-ee0f-5d85-b53f-42db636cc6f9-attr-3-comment" class="er entityLabel"/><rect height="22" width="53.671875" y="90.275390625" x="0" class="er attributeBoxEven"/><text style="dominant-baseline: middle; font-size: 10.2px;" transform="translate(5,101.275390625)" y="0" x="0" id="text-entity-Customer-7db3a251-ee0f-5d85-b53f-42db636cc6f9-attr-4-type" class="er entityLabel">DateTime</text><rect height="22" width="57.65625" y="90.275390625" x="53.671875" class="er attributeBoxEven"/><text style="dominant-baseline: middle; font-size: 10.2px;" transform="translate(58.671875,101.275390625)" y="0" x="0" id="text-entity-Customer-7db3a251-ee0f-5d85-b53f-42db636cc6f9-attr-4-name" class="er entityLabel">createdAt</text><rect height="22" width="21.5625" y="90.275390625" x="111.328125" class="er attributeBoxEven"/><text style="dominant-baseline: middle; font-size: 10.2px;" transform="translate(116.328125,101.275390625)" y="0" x="0" id="text-entity-Customer-7db3a251-ee0f-5d85-b53f-42db636cc6f9-attr-4-comment" class="er entityLabel"/><rect height="22.091796875" width="53.671875" y="112.275390625" x="0" class="er attributeBoxOdd"/><text style="dominant-baseline: middle; font-size: 10.2px;" transform="translate(5,123.3212890625)" y="0" x="0" id="text-entity-Customer-7db3a251-ee0f-5d85-b53f-42db636cc6f9-attr-5-type" class="er entityLabel">DateTime</text><rect height="22.091796875" width="57.65625" y="112.275390625" x="53.671875" class="er attributeBoxOdd"/><text style="dominant-baseline: middle; font-size: 10.2px;" transform="translate(58.671875,123.3212890625)" y="0" x="0" id="text-entity-Customer-7db3a251-ee0f-5d85-b53f-42db636cc6f9-attr-5-name" class="er entityLabel">updatedAt</text><rect height="22.091796875" width="21.5625" y="112.275390625" x="111.328125" class="er attributeBoxOdd"/><text style="dominant-baseline: middle; font-size: 10.2px;" transform="translate(116.328125,123.3212890625)" y="0" x="0" id="text-entity-Customer-7db3a251-ee0f-5d85-b53f-42db636cc6f9-attr-5-comment" class="er entityLabel"/></g><g transform="translate(21.7890625,554.91796875 )" id="entity-SpecialOffer-3010e29c-f798-5264-9786-21c4ee26d3f6"><rect height="134.3671875" width="174.6875" y="0" x="0" class="er entityBox"/><text style="dominant-baseline: middle; text-anchor: middle; font-size: 12px;" transform="translate(87.34375,12)" y="0" x="0" id="text-entity-SpecialOffer-3010e29c-f798-5264-9786-21c4ee26d3f6" class="er entityLabel">SpecialOffer</text><rect height="22.091796875" width="53.671875" y="24" x="0" class="er attributeBoxOdd"/><text style="dominant-baseline: middle; font-size: 10.2px;" transform="translate(5,35.0458984375)" y="0" x="0" id="text-entity-SpecialOffer-3010e29c-f798-5264-9786-21c4ee26d3f6-attr-1-type" class="er entityLabel">String</text><rect height="22.091796875" width="99.453125" y="24" x="53.671875" class="er attributeBoxOdd"/><text style="dominant-baseline: middle; font-size: 10.2px;" transform="translate(58.671875,35.0458984375)" y="0" x="0" id="text-entity-SpecialOffer-3010e29c-f798-5264-9786-21c4ee26d3f6-attr-1-name" class="er entityLabel">id</text><rect height="22.091796875" width="21.5625" y="24" x="153.125" class="er attributeBoxOdd"/><text style="dominant-baseline: middle; font-size: 10.2px;" transform="translate(158.125,35.0458984375)" y="0" x="0" id="text-entity-SpecialOffer-3010e29c-f798-5264-9786-21c4ee26d3f6-attr-1-comment" class="er entityLabel">PK</text><rect height="22.091796875" width="53.671875" y="46.091796875" x="0" class="er attributeBoxEven"/><text style="dominant-baseline: middle; font-size: 10.2px;" transform="translate(5,57.1376953125)" y="0" x="0" id="text-entity-SpecialOffer-3010e29c-f798-5264-9786-21c4ee26d3f6-attr-2-type" class="er entityLabel">String</text><rect height="22.091796875" width="99.453125" y="46.091796875" x="53.671875" class="er attributeBoxEven"/><text style="dominant-baseline: middle; font-size: 10.2px;" transform="translate(58.671875,57.1376953125)" y="0" x="0" id="text-entity-SpecialOffer-3010e29c-f798-5264-9786-21c4ee26d3f6-attr-2-name" class="er entityLabel">name</text><rect height="22.091796875" width="21.5625" y="46.091796875" x="153.125" class="er attributeBoxEven"/><text style="dominant-baseline: middle; font-size: 10.2px;" transform="translate(158.125,57.1376953125)" y="0" x="0" id="text-entity-SpecialOffer-3010e29c-f798-5264-9786-21c4ee26d3f6-attr-2-comment" class="er entityLabel"/><rect height="22.091796875" width="53.671875" y="68.18359375" x="0" class="er attributeBoxOdd"/><text style="dominant-baseline: middle; font-size: 10.2px;" transform="translate(5,79.2294921875)" y="0" x="0" id="text-entity-SpecialOffer-3010e29c-f798-5264-9786-21c4ee26d3f6-attr-3-type" class="er entityLabel">Float</text><rect height="22.091796875" width="99.453125" y="68.18359375" x="53.671875" class="er attributeBoxOdd"/><text style="dominant-baseline: middle; font-size: 10.2px;" transform="translate(58.671875,79.2294921875)" y="0" x="0" id="text-entity-SpecialOffer-3010e29c-f798-5264-9786-21c4ee26d3f6-attr-3-name" class="er entityLabel">discountPercentage</text><rect height="22.091796875" width="21.5625" y="68.18359375" x="153.125" class="er attributeBoxOdd"/><text style="dominant-baseline: middle; font-size: 10.2px;" transform="translate(158.125,79.2294921875)" y="0" x="0" id="text-entity-SpecialOffer-3010e29c-f798-5264-9786-21c4ee26d3f6-attr-3-comment" class="er entityLabel"/><rect height="22" width="53.671875" y="90.275390625" x="0" class="er attributeBoxEven"/><text style="dominant-baseline: middle; font-size: 10.2px;" transform="translate(5,101.275390625)" y="0" x="0" id="text-entity-SpecialOffer-3010e29c-f798-5264-9786-21c4ee26d3f6-attr-4-type" class="er entityLabel">DateTime</text><rect height="22" width="99.453125" y="90.275390625" x="53.671875" class="er attributeBoxEven"/><text style="dominant-baseline: middle; font-size: 10.2px;" transform="translate(58.671875,101.275390625)" y="0" x="0" id="text-entity-SpecialOffer-3010e29c-f798-5264-9786-21c4ee26d3f6-attr-4-name" class="er entityLabel">createdAt</text><rect height="22" width="21.5625" y="90.275390625" x="153.125" class="er attributeBoxEven"/><text style="dominant-baseline: middle; font-size: 10.2px;" transform="translate(158.125,101.275390625)" y="0" x="0" id="text-entity-SpecialOffer-3010e29c-f798-5264-9786-21c4ee26d3f6-attr-4-comment" class="er entityLabel"/><rect height="22.091796875" width="53.671875" y="112.275390625" x="0" class="er attributeBoxOdd"/><text style="dominant-baseline: middle; font-size: 10.2px;" transform="translate(5,123.3212890625)" y="0" x="0" id="text-entity-SpecialOffer-3010e29c-f798-5264-9786-21c4ee26d3f6-attr-5-type" class="er entityLabel">DateTime</text><rect height="22.091796875" width="99.453125" y="112.275390625" x="53.671875" class="er attributeBoxOdd"/><text style="dominant-baseline: middle; font-size: 10.2px;" transform="translate(58.671875,123.3212890625)" y="0" x="0" id="text-entity-SpecialOffer-3010e29c-f798-5264-9786-21c4ee26d3f6-attr-5-name" class="er entityLabel">updatedAt</text><rect height="22.091796875" width="21.5625" y="112.275390625" x="153.125" class="er attributeBoxOdd"/><text style="dominant-baseline: middle; font-size: 10.2px;" transform="translate(158.125,123.3212890625)" y="0" x="0" id="text-entity-SpecialOffer-3010e29c-f798-5264-9786-21c4ee26d3f6-attr-5-comment" class="er entityLabel"/></g><g transform="translate(20,254.3671875 )" id="entity-Voucher-fc0a6196-8c8c-5730-871f-a6f8f108d722"><rect height="200.55078315734863" width="178.265625" y="0" x="0" class="er entityBox"/><text style="dominant-baseline: middle; text-anchor: middle; font-size: 12px;" transform="translate(89.1328125,12)" y="0" x="0" id="text-entity-Voucher-fc0a6196-8c8c-5730-871f-a6f8f108d722" class="er entityLabel">Voucher</text><rect height="22.091796875" width="53.671875" y="24" x="0" class="er attributeBoxOdd"/><text style="dominant-baseline: middle; font-size: 10.2px;" transform="translate(5,35.0458984375)" y="0" x="0" id="text-entity-Voucher-fc0a6196-8c8c-5730-871f-a6f8f108d722-attr-1-type" class="er entityLabel">String</text><rect height="22.091796875" width="77.8125" y="24" x="53.671875" class="er attributeBoxOdd"/><text style="dominant-baseline: middle; font-size: 10.2px;" transform="translate(58.671875,35.0458984375)" y="0" x="0" id="text-entity-Voucher-fc0a6196-8c8c-5730-871f-a6f8f108d722-attr-1-name" class="er entityLabel">id</text><rect height="22.091796875" width="46.78125" y="24" x="131.484375" class="er attributeBoxOdd"/><text style="dominant-baseline: middle; font-size: 10.2px;" transform="translate(136.484375,35.0458984375)" y="0" x="0" id="text-entity-Voucher-fc0a6196-8c8c-5730-871f-a6f8f108d722-attr-1-comment" class="er entityLabel">PK</text><rect height="22.091796875" width="53.671875" y="46.091796875" x="0" class="er attributeBoxEven"/><text style="dominant-baseline: middle; font-size: 10.2px;" transform="translate(5,57.1376953125)" y="0" x="0" id="text-entity-Voucher-fc0a6196-8c8c-5730-871f-a6f8f108d722-attr-2-type" class="er entityLabel">String</text><rect height="22.091796875" width="77.8125" y="46.091796875" x="53.671875" class="er attributeBoxEven"/><text style="dominant-baseline: middle; font-size: 10.2px;" transform="translate(58.671875,57.1376953125)" y="0" x="0" id="text-entity-Voucher-fc0a6196-8c8c-5730-871f-a6f8f108d722-attr-2-name" class="er entityLabel">code</text><rect height="22.091796875" width="46.78125" y="46.091796875" x="131.484375" class="er attributeBoxEven"/><text style="dominant-baseline: middle; font-size: 10.2px;" transform="translate(136.484375,57.1376953125)" y="0" x="0" id="text-entity-Voucher-fc0a6196-8c8c-5730-871f-a6f8f108d722-attr-2-comment" class="er entityLabel"/><rect height="22.091797828674316" width="53.671875" y="68.18359375" x="0" class="er attributeBoxOdd"/><text style="dominant-baseline: middle; font-size: 10.2px;" transform="translate(5,79.22949266433716)" y="0" x="0" id="text-entity-Voucher-fc0a6196-8c8c-5730-871f-a6f8f108d722-attr-3-type" class="er entityLabel">DateTime</text><rect height="22.091797828674316" width="77.8125" y="68.18359375" x="53.671875" class="er attributeBoxOdd"/><text style="dominant-baseline: middle; font-size: 10.2px;" transform="translate(58.671875,79.22949266433716)" y="0" x="0" id="text-entity-Voucher-fc0a6196-8c8c-5730-871f-a6f8f108d722-attr-3-name" class="er entityLabel">expirationDate</text><rect height="22.091797828674316" width="46.78125" y="68.18359375" x="131.484375" class="er attributeBoxOdd"/><text style="dominant-baseline: middle; font-size: 10.2px;" transform="translate(136.484375,79.22949266433716)" y="0" x="0" id="text-entity-Voucher-fc0a6196-8c8c-5730-871f-a6f8f108d722-attr-3-comment" class="er entityLabel"/><rect height="22" width="53.671875" y="90.27539157867432" x="0" class="er attributeBoxEven"/><text style="dominant-baseline: middle; font-size: 10.2px;" transform="translate(5,101.27539157867432)" y="0" x="0" id="text-entity-Voucher-fc0a6196-8c8c-5730-871f-a6f8f108d722-attr-4-type" class="er entityLabel">DateTime</text><rect height="22" width="77.8125" y="90.27539157867432" x="53.671875" class="er attributeBoxEven"/><text style="dominant-baseline: middle; font-size: 10.2px;" transform="translate(58.671875,101.27539157867432)" y="0" x="0" id="text-entity-Voucher-fc0a6196-8c8c-5730-871f-a6f8f108d722-attr-4-name" class="er entityLabel">usedAt</text><rect height="22" width="46.78125" y="90.27539157867432" x="131.484375" class="er attributeBoxEven"/><text style="dominant-baseline: middle; font-size: 10.2px;" transform="translate(136.484375,101.27539157867432)" y="0" x="0" id="text-entity-Voucher-fc0a6196-8c8c-5730-871f-a6f8f108d722-attr-4-comment" class="er entityLabel">nullable</text><rect height="22.091796875" width="53.671875" y="112.27539157867432" x="0" class="er attributeBoxOdd"/><text style="dominant-baseline: middle; font-size: 10.2px;" transform="translate(5,123.32129001617432)" y="0" x="0" id="text-entity-Voucher-fc0a6196-8c8c-5730-871f-a6f8f108d722-attr-5-type" class="er entityLabel">String</text><rect height="22.091796875" width="77.8125" y="112.27539157867432" x="53.671875" class="er attributeBoxOdd"/><text style="dominant-baseline: middle; font-size: 10.2px;" transform="translate(58.671875,123.32129001617432)" y="0" x="0" id="text-entity-Voucher-fc0a6196-8c8c-5730-871f-a6f8f108d722-attr-5-name" class="er entityLabel">customerId</text><rect height="22.091796875" width="46.78125" y="112.27539157867432" x="131.484375" class="er attributeBoxOdd"/><text style="dominant-baseline: middle; font-size: 10.2px;" transform="translate(136.484375,123.32129001617432)" y="0" x="0" id="text-entity-Voucher-fc0a6196-8c8c-5730-871f-a6f8f108d722-attr-5-comment" class="er entityLabel">nullable</text><rect height="22.091797828674316" width="53.671875" y="134.36718845367432" x="0" class="er attributeBoxEven"/><text style="dominant-baseline: middle; font-size: 10.2px;" transform="translate(5,145.41308736801147)" y="0" x="0" id="text-entity-Voucher-fc0a6196-8c8c-5730-871f-a6f8f108d722-attr-6-type" class="er entityLabel">String</text><rect height="22.091797828674316" width="77.8125" y="134.36718845367432" x="53.671875" class="er attributeBoxEven"/><text style="dominant-baseline: middle; font-size: 10.2px;" transform="translate(58.671875,145.41308736801147)" y="0" x="0" id="text-entity-Voucher-fc0a6196-8c8c-5730-871f-a6f8f108d722-attr-6-name" class="er entityLabel">specialOfferId</text><rect height="22.091797828674316" width="46.78125" y="134.36718845367432" x="131.484375" class="er attributeBoxEven"/><text style="dominant-baseline: middle; font-size: 10.2px;" transform="translate(136.484375,145.41308736801147)" y="0" x="0" id="text-entity-Voucher-fc0a6196-8c8c-5730-871f-a6f8f108d722-attr-6-comment" class="er entityLabel"/><rect height="22" width="53.671875" y="156.45898628234863" x="0" class="er attributeBoxOdd"/><text style="dominant-baseline: middle; font-size: 10.2px;" transform="translate(5,167.45898628234863)" y="0" x="0" id="text-entity-Voucher-fc0a6196-8c8c-5730-871f-a6f8f108d722-attr-7-type" class="er entityLabel">DateTime</text><rect height="22" width="77.8125" y="156.45898628234863" x="53.671875" class="er attributeBoxOdd"/><text style="dominant-baseline: middle; font-size: 10.2px;" transform="translate(58.671875,167.45898628234863)" y="0" x="0" id="text-entity-Voucher-fc0a6196-8c8c-5730-871f-a6f8f108d722-attr-7-name" class="er entityLabel">createdAt</text><rect height="22" width="46.78125" y="156.45898628234863" x="131.484375" class="er attributeBoxOdd"/><text style="dominant-baseline: middle; font-size: 10.2px;" transform="translate(136.484375,167.45898628234863)" y="0" x="0" id="text-entity-Voucher-fc0a6196-8c8c-5730-871f-a6f8f108d722-attr-7-comment" class="er entityLabel"/><rect height="22.091796875" width="53.671875" y="178.45898628234863" x="0" class="er attributeBoxEven"/><text style="dominant-baseline: middle; font-size: 10.2px;" transform="translate(5,189.50488471984863)" y="0" x="0" id="text-entity-Voucher-fc0a6196-8c8c-5730-871f-a6f8f108d722-attr-8-type" class="er entityLabel">DateTime</text><rect height="22.091796875" width="77.8125" y="178.45898628234863" x="53.671875" class="er attributeBoxEven"/><text style="dominant-baseline: middle; font-size: 10.2px;" transform="translate(58.671875,189.50488471984863)" y="0" x="0" id="text-entity-Voucher-fc0a6196-8c8c-5730-871f-a6f8f108d722-attr-8-name" class="er entityLabel">updatedAt</text><rect height="22.091796875" width="46.78125" y="178.45898628234863" x="131.484375" class="er attributeBoxEven"/><text style="dominant-baseline: middle; font-size: 10.2px;" transform="translate(136.484375,189.50488471984863)" y="0" x="0" id="text-entity-Voucher-fc0a6196-8c8c-5730-871f-a6f8f108d722-attr-8-comment" class="er entityLabel"/></g><rect height="14" width="47.4375" y="196.80133056640625" x="41.771270751953125" class="er relationshipLabelBox"/><text style="text-anchor: middle; dominant-baseline: middle; font-size: 12px;" y="203.80133056640625" x="65.49002075195312" id="rel1" class="er relationshipLabel">vouchers</text><rect height="14" width="47.4375" y="498.4836730957031" x="129.0559844970703" class="er relationshipLabelBox"/><text style="text-anchor: middle; dominant-baseline: middle; font-size: 12px;" y="505.4836730957031" x="152.7747344970703" id="rel2" class="er relationshipLabel">vouchers</text><rect height="14" width="49.734375" y="196.80137634277344" x="127.90754699707031" class="er relationshipLabelBox"/><text style="text-anchor: middle; dominant-baseline: middle; font-size: 12px;" y="203.80137634277344" x="152.7747344970703" id="rel3" class="er relationshipLabel">customer</text><rect height="14" width="65.46875" y="498.48370361328125" x="32.755897521972656" class="er relationshipLabelBox"/><text style="text-anchor: middle; dominant-baseline: middle; font-size: 12px;" y="505.48370361328125" x="65.49027252197266" id="rel4" class="er relationshipLabel">specialOffer</text></svg>